<svg version="1.1" viewBox="0.0 0.0 680.3149606299213 680.3149606299213" fill="none" stroke="none" stroke-linecap="square" stroke-miterlimit="10" xmlns:xlink="http://www.w3.org/1999/xlink" xmlns="http://www.w3.org/2000/svg"><clipPath id="p.0"><path d="m0 0l680.31494 0l0 680.31494l-680.31494 0l0 -680.31494z" clip-rule="nonzero"/></clipPath><g clip-path="url(#p.0)"><path fill="#000000" fill-opacity="0.0" d="m0 0l680.31494 0l0 680.31494l-680.31494 0z" fill-rule="evenodd"/><path fill="#977618" d="m110.418175 324.83292c2.4643936 -11.491577 9.185005 -51.824585 14.786392 -68.94943c5.601372 -17.124847 13.220085 -25.011795 18.821892 -33.799683c5.601822 -8.787872 6.0502167 -13.519775 14.789017 -18.927597c8.7388 -5.407837 22.183075 -10.364746 37.6438 -13.519348c15.460709 -3.154602 34.73056 -10.140167 55.120514 -5.408264c20.389969 4.731903 52.879013 17.576202 67.21919 33.799683c14.340179 16.223465 15.012787 50.69774 18.8219 63.541183c3.809143 12.843414 -12.099976 14.645721 4.032898 13.519318c16.132874 -1.1263733 62.739227 -23.432281 92.76431 -20.27768c30.025116 3.154602 70.80502 22.305908 87.38629 39.20529c16.581238 16.899414 14.117737 41.91165 12.101257 62.1911c-2.0164185 20.27945 -20.166626 43.93808 -24.199951 59.485626c-4.033325 15.547546 2.0168762 12.1683655 0 33.799683c-2.0168762 21.631287 -2.2423706 79.53961 -12.101288 95.9881c-9.858887 16.448547 -38.537964 7.2092896 -47.052124 2.7028198c-8.51416 -4.5064087 -6.7214966 -15.546204 -4.032898 -29.741455c2.6885986 -14.1953125 17.923828 -42.361237 20.16446 -55.430115c2.240631 -13.068878 -0.44665527 -19.603088 -6.7206116 -22.983154c-6.2739563 -3.380066 -26.66568 -15.097961 -30.923187 2.7028198c-4.2575073 17.800781 12.547943 86.52649 5.3780518 104.10181c-7.169861 17.575378 -39.21054 5.8569946 -48.397278 1.3500977c-9.186768 -4.506836 -7.8433533 -23.209045 -6.723236 -28.391357c1.1200867 -5.182373 13.66803 6.0845947 13.443848 -2.7028198c-0.22421265 -8.787476 5.1529846 -41.91034 -14.789032 -50.02185c-19.941986 -8.111542 -87.16162 -12.617523 -104.862976 1.3527222c-17.70137 13.970245 4.70459 67.82263 -1.3451843 82.46875c-6.049774 14.646179 -28.679916 7.661499 -34.953445 5.408264c-6.273529 -2.2531738 -2.2397766 -15.772949 -2.687729 -18.927551" fill-rule="evenodd"/><path stroke="#000000" stroke-width="4.0" stroke-linejoin="round" stroke-linecap="butt" d="m110.418175 324.83292c2.4643936 -11.491577 9.185005 -51.824585 14.786392 -68.94943c5.601372 -17.124847 13.220085 -25.011795 18.821892 -33.799683c5.601822 -8.787872 6.0502167 -13.519775 14.789017 -18.927597c8.7388 -5.407837 22.183075 -10.364746 37.6438 -13.519348c15.460709 -3.154602 34.73056 -10.140167 55.120514 -5.408264c20.389969 4.731903 52.879013 17.576202 67.21919 33.799683c14.340179 16.223465 15.012787 50.69774 18.8219 63.541183c3.809143 12.843414 -12.099976 14.645721 4.032898 13.519318c16.132874 -1.1263733 62.739227 -23.432281 92.76431 -20.27768c30.025116 3.154602 70.80502 22.305908 87.38629 39.20529c16.581238 16.899414 14.117737 41.91165 12.101257 62.1911c-2.0164185 20.27945 -20.166626 43.93808 -24.199951 59.485626c-4.033325 15.547546 2.0168762 12.1683655 0 33.799683c-2.0168762 21.631287 -2.2423706 79.53961 -12.101288 95.9881c-9.858887 16.448547 -38.537964 7.2092896 -47.052124 2.7028198c-8.51416 -4.5064087 -6.7214966 -15.546204 -4.032898 -29.741455c2.6885986 -14.1953125 17.923828 -42.361237 20.16446 -55.430115c2.240631 -13.068878 -0.44665527 -19.603088 -6.7206116 -22.983154c-6.2739563 -3.380066 -26.66568 -15.097961 -30.923187 2.7028198c-4.2575073 17.800781 12.547943 86.52649 5.3780518 104.10181c-7.169861 17.575378 -39.21054 5.8569946 -48.397278 1.3500977c-9.186768 -4.506836 -7.8433533 -23.209045 -6.723236 -28.391357c1.1200867 -5.182373 13.66803 6.0845947 13.443848 -2.7028198c-0.22421265 -8.787476 5.1529846 -41.91034 -14.789032 -50.02185c-19.941986 -8.111542 -87.16162 -12.617523 -104.862976 1.3527222c-17.70137 13.970245 4.70459 67.82263 -1.3451843 82.46875c-6.049774 14.646179 -28.679916 7.661499 -34.953445 5.408264c-6.273529 -2.2531738 -2.2397766 -15.772949 -2.687729 -18.927551" fill-rule="evenodd"/><path fill="#977618" d="m244.85222 558.7209c-0.9397583 -11.040649 -2.3496246 -55.428345 -5.638565 -66.24399c-3.2889404 -10.815674 -12.920258 -11.042877 -14.0950775 1.3500671c-1.1748047 12.392975 12.449234 61.065125 7.046173 73.00763c-5.403061 11.942505 -30.772537 4.0551147 -39.46454 -1.3527222c-8.692001 -5.407837 -0.23643494 -2.4777832 -12.687485 -31.094238c-12.45105 -28.616425 -50.507996 -105.45325 -62.01883 -140.60431c-11.510834 -35.151093 -5.8718033 -58.585144 -7.0461655 -70.302185" fill-rule="evenodd"/><path stroke="#000000" stroke-width="4.0" stroke-linejoin="round" stroke-linecap="butt" d="m244.85222 558.7209c-0.9397583 -11.040649 -2.3496246 -55.428345 -5.638565 -66.24399c-3.2889404 -10.815674 -12.920258 -11.042877 -14.0950775 1.3500671c-1.1748047 12.392975 12.449234 61.065125 7.046173 73.00763c-5.403061 11.942505 -30.772537 4.0551147 -39.46454 -1.3527222c-8.692001 -5.407837 -0.23643494 -2.4777832 -12.687485 -31.094238c-12.45105 -28.616425 -50.507996 -105.45325 -62.01883 -140.60431c-11.510834 -35.151093 -5.8718033 -58.585144 -7.0461655 -70.302185" fill-rule="evenodd"/><path fill="#977618" d="m127.89442 249.12233c-3.8091278 -15.322098 -32.489494 -82.46922 -22.854782 -91.93259c9.634705 -9.463364 67.2192 29.29367 80.66303 35.152405" fill-rule="evenodd"/><path stroke="#000000" stroke-width="4.0" stroke-linejoin="round" stroke-linecap="butt" d="m127.89442 249.12233c-3.8091278 -15.322098 -32.489494 -82.46922 -22.854782 -91.93259c9.634705 -9.463364 67.2192 29.29367 80.66303 35.152405" fill-rule="evenodd"/><path fill="#434343" d="m270.3967 186.93233c12.7716675 -4.281433 66.54703 -35.828323 76.63013 -25.688583c10.083099 10.139725 -13.442963 72.10579 -16.131561 86.52695" fill-rule="evenodd"/><path stroke="#000000" stroke-width="4.0" stroke-linejoin="round" stroke-linecap="butt" d="m270.3967 186.93233c12.7716675 -4.281433 66.54703 -35.828323 76.63013 -25.688583c10.083099 10.139725 -13.442963 72.10579 -16.131561 86.52695" fill-rule="evenodd"/><path fill="#977618" d="m500.28253 300.49588c6.5334167 -2.7037048 23.683777 -3.3787231 39.20038 -16.222168c15.516663 -12.843414 48.727356 -43.26303 53.899353 -60.83835c5.172058 -17.575333 -20.417297 -31.319244 -22.867126 -44.61357c-2.449829 -13.294327 2.179016 -35.152405 8.168213 -35.152405c5.9891357 0 19.600159 18.928925 27.766785 35.152405c8.166626 16.223465 24.499878 44.838577 21.23291 62.188446c-3.2669678 17.349869 -29.401123 31.545578 -40.834656 41.91075c-11.433594 10.365204 -18.78363 10.591095 -27.766846 20.280334c-8.983215 9.68927 -21.7771 31.54602 -26.132507 37.855225" fill-rule="evenodd"/><path stroke="#000000" stroke-width="3.0" stroke-linejoin="round" stroke-linecap="butt" d="m500.28253 300.49588c6.5334167 -2.7037048 23.683777 -3.3787231 39.20038 -16.222168c15.516663 -12.843414 48.727356 -43.26303 53.899353 -60.83835c5.172058 -17.575333 -20.417297 -31.319244 -22.867126 -44.61357c-2.449829 -13.294327 2.179016 -35.152405 8.168213 -35.152405c5.9891357 0 19.600159 18.928925 27.766785 35.152405c8.166626 16.223465 24.499878 44.838577 21.23291 62.188446c-3.2669678 17.349869 -29.401123 31.545578 -40.834656 41.91075c-11.433594 10.365204 -18.78363 10.591095 -27.766846 20.280334c-8.983215 9.68927 -21.7771 31.54602 -26.132507 37.855225" fill-rule="evenodd"/><path fill="#434343" d="m208.8218 193.60233c4.819702 7.076523 26.749496 30.664932 28.918213 42.459137c2.1687317 11.794189 -16.628769 18.63469 -15.905853 28.306091c0.7229004 9.671356 18.074112 18.399597 20.243301 29.722198c2.1692047 11.322632 -12.53009 28.070068 -7.228134 38.2135c5.301941 10.143402 28.677536 23.354675 39.03987 22.647064c10.362305 -0.7076111 17.83252 -37.743286 23.134003 -26.8927c5.301483 10.850555 -0.72384644 77.607086 8.674896 91.996124c9.398743 14.389069 39.282867 13.444977 47.71756 -5.661743c8.434723 -19.10675 2.4089355 -90.81558 2.8907166 -108.9787" fill-rule="evenodd"/><path stroke="#000000" stroke-width="4.0" stroke-linejoin="round" stroke-linecap="butt" d="m208.8218 193.60233c4.819702 7.076523 26.749496 30.664932 28.918213 42.459137c2.1687317 11.794189 -16.628769 18.63469 -15.905853 28.306091c0.7229004 9.671356 18.074112 18.399597 20.243301 29.722198c2.1692047 11.322632 -12.53009 28.070068 -7.228134 38.2135c5.301941 10.143402 28.677536 23.354675 39.03987 22.647064c10.362305 -0.7076111 17.83252 -37.743286 23.134003 -26.8927c5.301483 10.850555 -0.72384644 77.607086 8.674896 91.996124c9.398743 14.389069 39.282867 13.444977 47.71756 -5.661743c8.434723 -19.10675 2.4089355 -90.81558 2.8907166 -108.9787" fill-rule="evenodd"/><path fill="#434343" d="m402.14322 280.2198c0.67214966 7.435608 -4.272461E-4 36.502045 4.032898 44.613586c4.033325 8.111511 16.805908 -5.182831 20.167084 4.0555115c3.3611755 9.238373 -6.273987 43.26306 0 51.374573c6.2739563 8.111511 31.594025 6.307434 37.6438 -2.7054443c6.0497437 -9.012909 -13.444733 -48.44278 -1.3451843 -51.371918c12.099548 -2.9291687 61.618683 28.164185 73.94241 33.797028" fill-rule="evenodd"/><path stroke="#000000" stroke-width="4.0" stroke-linejoin="round" stroke-linecap="butt" d="m402.14322 280.2198c0.67214966 7.435608 -4.272461E-4 36.502045 4.032898 44.613586c4.033325 8.111511 16.805908 -5.182831 20.167084 4.0555115c3.3611755 9.238373 -6.273987 43.26306 0 51.374573c6.2739563 8.111511 31.594025 6.307434 37.6438 -2.7054443c6.0497437 -9.012909 -13.444733 -48.44278 -1.3451843 -51.371918c12.099548 -2.9291687 61.618683 28.164185 73.94241 33.797028" fill-rule="evenodd"/><path fill="#434343" d="m121.17134 405.9509c18.14975 2.704132 90.74875 10.141052 108.8985 16.224792c18.14975 6.08374 7.3945007 17.799011 0 20.27771c-7.3945007 2.4786682 -41.453796 -27.26239 -44.36702 -5.4056396c-2.9132385 21.85675 22.406387 113.78848 26.887665 136.54617" fill-rule="evenodd"/><path stroke="#000000" stroke-width="4.0" stroke-linejoin="round" stroke-linecap="butt" d="m121.17134 405.9509c18.14975 2.704132 90.74875 10.141052 108.8985 16.224792c18.14975 6.08374 7.3945007 17.799011 0 20.27771c-7.3945007 2.4786682 -41.453796 -27.26239 -44.36702 -5.4056396c-2.9132385 21.85675 22.406387 113.78848 26.887665 136.54617" fill-rule="evenodd"/><path fill="#434343" d="m239.4756 543.8531c6.4981537 -3.8305664 25.321365 -5.182373 30.923172 0c5.601837 5.182373 7.393219 25.461365 2.6877441 31.094177c-4.705475 5.6328735 -23.974472 4.0546875 -30.920578 2.7028198c-6.946121 -1.3518066 -10.307724 -5.1810303 -10.756119 -10.813843c-0.44839478 -5.6328735 1.5676117 -19.152649 8.065781 -22.983154z" fill-rule="evenodd"/><path stroke="#000000" stroke-width="4.0" stroke-linejoin="round" stroke-linecap="butt" d="m239.4756 543.8531c6.4981537 -3.8305664 25.321365 -5.182373 30.923172 0c5.601837 5.182373 7.393219 25.461365 2.6877441 31.094177c-4.705475 5.6328735 -23.974472 4.0546875 -30.920578 2.7028198c-6.946121 -1.3518066 -10.307724 -5.1810303 -10.756119 -10.813843c-0.44839478 -5.6328735 1.5676117 -19.152649 8.065781 -22.983154z" fill-rule="evenodd"/><path fill="#ffffff" d="m157.46918 238.30858c2.6890259 -5.4078217 44.143265 3.6037445 49.745087 10.813889c5.601822 7.210144 -7.843338 34.249268 -16.134186 32.44696c-8.290848 -1.8023071 -36.299927 -37.853027 -33.6109 -43.26085z" fill-rule="evenodd"/><path stroke="#000000" stroke-width="4.0" stroke-linejoin="round" stroke-linecap="butt" d="m157.46918 238.30858c2.6890259 -5.4078217 44.143265 3.6037445 49.745087 10.813889c5.601822 7.210144 -7.843338 34.249268 -16.134186 32.44696c-8.290848 -1.8023071 -36.299927 -37.853027 -33.6109 -43.26085z" fill-rule="evenodd"/><path fill="#000000" d="m311.84055 234.64868c3.6921387 4.772156 -22.27002 38.493713 -31.154572 40.46588c-8.884552 1.9721375 -27.34523 -21.888641 -22.152802 -28.63295c5.192444 -6.7443237 49.615265 -16.605087 53.307373 -11.8329315z" fill-rule="evenodd"/><path stroke="#000000" stroke-width="4.0" stroke-linejoin="round" stroke-linecap="butt" d="m311.84055 234.64868c3.6921387 4.772156 -22.27002 38.493713 -31.154572 40.46588c-8.884552 1.9721375 -27.34523 -21.888641 -22.152802 -28.63295c5.192444 -6.7443237 49.615265 -16.605087 53.307373 -11.8329315z" fill-rule="evenodd"/><path fill="#000000" d="m223.22264 286.9781c4.071167 -2.4786682 33.332047 -2.4786682 35.113052 0c1.7810059 2.4786682 -18.574814 14.87207 -24.426987 14.87207c-5.852188 0 -14.757233 -12.393402 -10.686066 -14.87207z" fill-rule="evenodd"/><path stroke="#000000" stroke-width="1.0" stroke-linejoin="round" stroke-linecap="butt" d="m223.22264 286.9781c4.071167 -2.4786682 33.332047 -2.4786682 35.113052 0c1.7810059 2.4786682 -18.574814 14.87207 -24.426987 14.87207c-5.852188 0 -14.757233 -12.393402 -10.686066 -14.87207z" fill-rule="evenodd"/><path fill="#000000" fill-opacity="0.0" d="m199.20702 312.159c3.0620575 2.3521118 12.57045 13.685211 18.37236 14.112671c5.8019104 0.42745972 11.926346 -11.975342 16.439133 -11.547852c4.5127716 0.42745972 5.157501 14.326599 10.637527 14.112671c5.480011 -0.21395874 18.535492 -12.830292 22.242615 -15.396332" fill-rule="evenodd"/><path stroke="#000000" stroke-width="4.0" stroke-linejoin="round" stroke-linecap="butt" d="m199.20702 312.159c3.0620575 2.3521118 12.57045 13.685211 18.37236 14.112671c5.8019104 0.42745972 11.926346 -11.975342 16.439133 -11.547852c4.5127716 0.42745972 5.157501 14.326599 10.637527 14.112671c5.480011 -0.21395874 18.535492 -12.830292 22.242615 -15.396332" fill-rule="evenodd"/><path fill="#000000" d="m177.72424 251.23976l0 0c0 -6.714386 4.5124054 -12.157471 10.078735 -12.157471l0 0c2.67305 0 5.236618 1.2808685 7.1267548 3.5608368c1.8901215 2.2799683 2.9519958 5.3722687 2.9519958 8.596634l0 0c0 6.7144012 -4.5124054 12.157486 -10.078751 12.157486l0 0c-5.56633 0 -10.078735 -5.4430847 -10.078735 -12.157486z" fill-rule="evenodd"/><path stroke="#000000" stroke-width="1.0" stroke-linejoin="round" stroke-linecap="butt" d="m177.72424 251.23976l0 0c0 -6.714386 4.5124054 -12.157471 10.078735 -12.157471l0 0c2.67305 0 5.236618 1.2808685 7.1267548 3.5608368c1.8901215 2.2799683 2.9519958 5.3722687 2.9519958 8.596634l0 0c0 6.7144012 -4.5124054 12.157486 -10.078751 12.157486l0 0c-5.56633 0 -10.078735 -5.4430847 -10.078735 -12.157486z" fill-rule="evenodd"/><path fill="#ff0000" d="m272.0323 248.6014l0 0c0 -6.714386 4.5124207 -12.157471 10.078735 -12.157471l0 0c2.6730652 0 5.2366333 1.2808685 7.12677 3.5608368c1.8901062 2.2799683 2.9519958 5.3722687 2.9519958 8.596634l0 0c0 6.7144012 -4.5124207 12.157486 -10.078766 12.157486l0 0c-5.5663147 0 -10.078735 -5.4430847 -10.078735 -12.157486z" fill-rule="evenodd"/><path stroke="#000000" stroke-width="1.0" stroke-linejoin="round" stroke-linecap="butt" d="m272.0323 248.6014l0 0c0 -6.714386 4.5124207 -12.157471 10.078735 -12.157471l0 0c2.6730652 0 5.2366333 1.2808685 7.12677 3.5608368c1.8901062 2.2799683 2.9519958 5.3722687 2.9519958 8.596634l0 0c0 6.7144012 -4.5124207 12.157486 -10.078766 12.157486l0 0c-5.5663147 0 -10.078735 -5.4430847 -10.078735 -12.157486z" fill-rule="evenodd"/><path fill="#000000" fill-opacity="0.0" d="m133.99706 221.68417c-2.3956451 -6.333908 -20.433418 -34.091446 -14.373917 -38.00345c6.059494 -3.9120026 42.275757 12.109528 50.73091 14.531433" fill-rule="evenodd"/><path stroke="#000000" stroke-width="4.0" stroke-linejoin="round" stroke-linecap="butt" d="m133.99706 221.68417c-2.3956451 -6.333908 -20.433418 -34.091446 -14.373917 -38.00345c6.059494 -3.9120026 42.275757 12.109528 50.73091 14.531433" fill-rule="evenodd"/><path fill="#000000" fill-opacity="0.0" d="m293.29248 193.33488c6.115387 -2.8479614 32.386322 -22.891968 36.692352 -17.0878c4.3060303 5.804184 -9.046875 43.260742 -10.856262 51.912888" fill-rule="evenodd"/><path stroke="#000000" stroke-width="4.0" stroke-linejoin="round" stroke-linecap="butt" d="m293.29248 193.33488c6.115387 -2.8479614 32.386322 -22.891968 36.692352 -17.0878c4.3060303 5.804184 -9.046875 43.260742 -10.856262 51.912888" fill-rule="evenodd"/><path fill="#434343" d="m547.3358 300.49783c10.755249 -10.364746 55.12097 -45.289047 64.531494 -62.188446c9.410522 -16.899399 -5.8273315 -35.602432 -8.06842 -39.207947c-2.2410889 -3.6054993 -3.8095703 10.815216 -5.3780518 17.57489c-1.5684814 6.759674 -2.4648438 16.448486 -4.032898 22.983139c-1.5680542 6.534668 -4.479553 13.52066 -5.3754272 16.224792" fill-rule="evenodd"/><path stroke="#000000" stroke-width="4.0" stroke-linejoin="round" stroke-linecap="butt" d="m547.3358 300.49783c10.755249 -10.364746 55.12097 -45.289047 64.531494 -62.188446c9.410522 -16.899399 -5.8273315 -35.602432 -8.06842 -39.207947c-2.2410889 -3.6054993 -3.8095703 10.815216 -5.3780518 17.57489c-1.5684814 6.759674 -2.4648438 16.448486 -4.032898 22.983139c-1.5680542 6.534668 -4.479553 13.52066 -5.3754272 16.224792" fill-rule="evenodd"/><path fill="#000000" fill-opacity="0.0" d="m270.39706 303.7901c6.0653076 -1.692749 25.7099 -8.657593 36.391785 -10.156464c10.681915 -1.4989014 23.083069 0.96932983 27.699677 1.163208" fill-rule="evenodd"/><path stroke="#d9d9d9" stroke-width="3.0" stroke-linejoin="round" stroke-linecap="butt" d="m270.39706 303.7901c6.0653076 -1.692749 25.7099 -8.657593 36.391785 -10.156464c10.681915 -1.4989014 23.083069 0.96932983 27.699677 1.163208" fill-rule="evenodd"/><path fill="#000000" fill-opacity="0.0" d="m271.24078 309.1877c2.685608 -0.42318726 8.117859 -1.4634094 16.11377 -2.539215c7.99588 -1.0757751 23.461884 -4.250244 31.861664 -3.9155579c8.39975 0.33468628 15.447449 4.936432 18.536957 5.923706" fill-rule="evenodd"/><path stroke="#cccccc" stroke-width="3.0" stroke-linejoin="round" stroke-linecap="butt" d="m271.24078 309.1877c2.685608 -0.42318726 8.117859 -1.4634094 16.11377 -2.539215c7.99588 -1.0757751 23.461884 -4.250244 31.861664 -3.9155579c8.39975 0.33468628 15.447449 4.936432 18.536957 5.923706" fill-rule="evenodd"/><path fill="#000000" fill-opacity="0.0" d="m273.6101 313.7915c3.5195618 -0.37039185 14.455414 -2.001831 21.117401 -2.2224731c6.6619873 -0.22064209 12.236633 -0.36175537 18.854614 0.89868164c6.6179504 1.260437 17.377686 5.553253 20.853241 6.66391" fill-rule="evenodd"/><path stroke="#cccccc" stroke-width="3.0" stroke-linejoin="round" stroke-linecap="butt" d="m273.6101 313.7915c3.5195618 -0.37039185 14.455414 -2.001831 21.117401 -2.2224731c6.6619873 -0.22064209 12.236633 -0.36175537 18.854614 0.89868164c6.6179504 1.260437 17.377686 5.553253 20.853241 6.66391" fill-rule="evenodd"/><path fill="#000000" fill-opacity="0.0" d="m195.70749 305.10602c-6.0652924 -1.692749 -25.709885 -8.657623 -36.391785 -10.156494c-10.6819 -1.4988708 -23.083038 0.96932983 -27.699661 1.163208" fill-rule="evenodd"/><path stroke="#cccccc" stroke-width="4.0" stroke-linejoin="round" stroke-linecap="butt" d="m195.70749 305.10602c-6.0652924 -1.692749 -25.709885 -8.657623 -36.391785 -10.156494c-10.6819 -1.4988708 -23.083038 0.96932983 -27.699661 1.163208" fill-rule="evenodd"/><path fill="#000000" fill-opacity="0.0" d="m194.86378 310.50363c-2.6856232 -0.42321777 -8.117859 -1.46344 -16.113754 -2.539215c-7.9959106 -1.0758057 -23.461899 -4.2502747 -31.861664 -3.9155884c-8.39978 0.33468628 -15.447479 4.936432 -18.536972 5.9237366" fill-rule="evenodd"/><path stroke="#cccccc" stroke-width="4.0" stroke-linejoin="round" stroke-linecap="butt" d="m194.86378 310.50363c-2.6856232 -0.42321777 -8.117859 -1.46344 -16.113754 -2.539215c-7.9959106 -1.0758057 -23.461899 -4.2502747 -31.861664 -3.9155884c-8.39978 0.33468628 -15.447479 4.936432 -18.536972 5.9237366" fill-rule="evenodd"/><path fill="#000000" fill-opacity="0.0" d="m192.49448 315.10742c-3.519577 -0.37042236 -14.455414 -2.0018616 -21.117416 -2.2225037c-6.6620026 -0.22064209 -12.236633 -0.36175537 -18.854599 0.89868164c-6.617981 1.260437 -17.377716 5.553253 -20.853256 6.66391" fill-rule="evenodd"/><path stroke="#cccccc" stroke-width="4.0" stroke-linejoin="round" stroke-linecap="butt" d="m192.49448 315.10742c-3.519577 -0.37042236 -14.455414 -2.0018616 -21.117416 -2.2225037c-6.6620026 -0.22064209 -12.236633 -0.36175537 -18.854599 0.89868164c-6.617981 1.260437 -17.377716 5.553253 -20.853256 6.66391" fill-rule="evenodd"/></g></svg>